G04 #@! TF.GenerationSoftware,KiCad,Pcbnew,9.0.5*
G04 #@! TF.CreationDate,2025-11-23T21:58:28+00:00*
G04 #@! TF.ProjectId,OpenThermShield,4f70656e-5468-4657-926d-536869656c64,rev?*
G04 #@! TF.SameCoordinates,Original*
G04 #@! TF.FileFunction,Copper,L2,Bot*
G04 #@! TF.FilePolarity,Positive*
%FSLAX46Y46*%
G04 Gerber Fmt 4.6, Leading zero omitted, Abs format (unit mm)*
G04 Created by KiCad (PCBNEW 9.0.5) date 2025-11-23 21:58:28*
%MOMM*%
%LPD*%
G01*
G04 APERTURE LIST*
G04 Aperture macros list*
%AMRoundRect*
0 Rectangle with rounded corners*
0 $1 Rounding radius*
0 $2 $3 $4 $5 $6 $7 $8 $9 X,Y pos of 4 corners*
0 Add a 4 corners polygon primitive as box body*
4,1,4,$2,$3,$4,$5,$6,$7,$8,$9,$2,$3,0*
0 Add four circle primitives for the rounded corners*
1,1,$1+$1,$2,$3*
1,1,$1+$1,$4,$5*
1,1,$1+$1,$6,$7*
1,1,$1+$1,$8,$9*
0 Add four rect primitives between the rounded corners*
20,1,$1+$1,$2,$3,$4,$5,0*
20,1,$1+$1,$4,$5,$6,$7,0*
20,1,$1+$1,$6,$7,$8,$9,0*
20,1,$1+$1,$8,$9,$2,$3,0*%
G04 Aperture macros list end*
G04 #@! TA.AperFunction,ComponentPad*
%ADD10R,1.800000X1.800000*%
G04 #@! TD*
G04 #@! TA.AperFunction,ComponentPad*
%ADD11C,1.800000*%
G04 #@! TD*
G04 #@! TA.AperFunction,ComponentPad*
%ADD12C,1.400000*%
G04 #@! TD*
G04 #@! TA.AperFunction,ComponentPad*
%ADD13RoundRect,0.250000X-0.550000X0.550000X-0.550000X-0.550000X0.550000X-0.550000X0.550000X0.550000X0*%
G04 #@! TD*
G04 #@! TA.AperFunction,ComponentPad*
%ADD14C,1.600000*%
G04 #@! TD*
G04 #@! TA.AperFunction,ComponentPad*
%ADD15RoundRect,0.249999X0.850001X-0.850001X0.850001X0.850001X-0.850001X0.850001X-0.850001X-0.850001X0*%
G04 #@! TD*
G04 #@! TA.AperFunction,ComponentPad*
%ADD16C,2.200000*%
G04 #@! TD*
G04 #@! TA.AperFunction,ComponentPad*
%ADD17RoundRect,0.250000X0.550000X-0.550000X0.550000X0.550000X-0.550000X0.550000X-0.550000X-0.550000X0*%
G04 #@! TD*
G04 #@! TA.AperFunction,ComponentPad*
%ADD18RoundRect,0.249999X-0.850001X0.850001X-0.850001X-0.850001X0.850001X-0.850001X0.850001X0.850001X0*%
G04 #@! TD*
G04 #@! TA.AperFunction,ComponentPad*
%ADD19R,1.050000X1.500000*%
G04 #@! TD*
G04 #@! TA.AperFunction,ComponentPad*
%ADD20O,1.050000X1.500000*%
G04 #@! TD*
G04 #@! TA.AperFunction,ComponentPad*
%ADD21RoundRect,0.250001X-1.149999X-1.149999X1.149999X-1.149999X1.149999X1.149999X-1.149999X1.149999X0*%
G04 #@! TD*
G04 #@! TA.AperFunction,ComponentPad*
%ADD22C,2.800000*%
G04 #@! TD*
G04 #@! TA.AperFunction,ComponentPad*
%ADD23R,2.000000X2.000000*%
G04 #@! TD*
G04 #@! TA.AperFunction,ComponentPad*
%ADD24O,1.600000X2.000000*%
G04 #@! TD*
G04 #@! TA.AperFunction,Conductor*
%ADD25C,1.000000*%
G04 #@! TD*
G04 APERTURE END LIST*
D10*
G04 #@! TO.P,D12,1,K*
G04 #@! TO.N,GND*
X111560000Y-46960000D03*
D11*
G04 #@! TO.P,D12,2,A*
G04 #@! TO.N,Net-(D12-A)*
X111560000Y-49500000D03*
G04 #@! TD*
D12*
G04 #@! TO.P,R8,1*
G04 #@! TO.N,Net-(D12-A)*
X111500000Y-52190000D03*
G04 #@! TO.P,R8,2*
G04 #@! TO.N,+3V3*
X111500000Y-59810000D03*
G04 #@! TD*
G04 #@! TO.P,R9,2*
G04 #@! TO.N,OT_RX_LED*
X103500000Y-59810000D03*
G04 #@! TO.P,R9,1*
G04 #@! TO.N,Net-(D11-A)*
X103500000Y-52190000D03*
G04 #@! TD*
D11*
G04 #@! TO.P,D11,2,A*
G04 #@! TO.N,Net-(D11-A)*
X103530000Y-49500000D03*
D10*
G04 #@! TO.P,D11,1,K*
G04 #@! TO.N,GND*
X103530000Y-46960000D03*
G04 #@! TD*
G04 #@! TO.P,D10,1,K*
G04 #@! TO.N,GND*
X94970000Y-46960000D03*
D11*
G04 #@! TO.P,D10,2,A*
G04 #@! TO.N,Net-(D10-A)*
X94970000Y-49500000D03*
G04 #@! TD*
D10*
G04 #@! TO.P,D2,1,K*
G04 #@! TO.N,GND*
X120730000Y-104500000D03*
D11*
G04 #@! TO.P,D2,2,A*
G04 #@! TO.N,Net-(D2-A)*
X123270000Y-104500000D03*
G04 #@! TD*
D13*
G04 #@! TO.P,D9,1,K*
G04 #@! TO.N,Net-(D8-K)*
X109130000Y-138690000D03*
D14*
G04 #@! TO.P,D9,2,A*
G04 #@! TO.N,OT_B*
X109130000Y-146310000D03*
G04 #@! TD*
D12*
G04 #@! TO.P,R2,1*
G04 #@! TO.N,Net-(D2-A)*
X127000000Y-104310000D03*
G04 #@! TO.P,R2,2*
G04 #@! TO.N,OT_IN*
X127000000Y-96690000D03*
G04 #@! TD*
D13*
G04 #@! TO.P,U3,1*
G04 #@! TO.N,Net-(R1-Pad1)*
X130775000Y-109195000D03*
D14*
G04 #@! TO.P,U3,2*
G04 #@! TO.N,GND*
X128235000Y-109195000D03*
G04 #@! TO.P,U3,3*
G04 #@! TO.N,Net-(D1-K)*
X128235000Y-116815000D03*
G04 #@! TO.P,U3,4*
G04 #@! TO.N,Net-(D5-K)*
X130775000Y-116815000D03*
G04 #@! TD*
D12*
G04 #@! TO.P,R3,1*
G04 #@! TO.N,GND*
X107500000Y-97190000D03*
G04 #@! TO.P,R3,2*
G04 #@! TO.N,OT_OUT*
X107500000Y-104810000D03*
G04 #@! TD*
G04 #@! TO.P,R1,1*
G04 #@! TO.N,Net-(R1-Pad1)*
X134000000Y-104310000D03*
G04 #@! TO.P,R1,2*
G04 #@! TO.N,OT_IN*
X134000000Y-96690000D03*
G04 #@! TD*
G04 #@! TO.P,R4,1*
G04 #@! TO.N,Net-(D3-A)*
X112000000Y-97190000D03*
G04 #@! TO.P,R4,2*
G04 #@! TO.N,OT_OUT*
X112000000Y-104810000D03*
G04 #@! TD*
D15*
G04 #@! TO.P,D6,1,K*
G04 #@! TO.N,Net-(D6-K)*
X95130000Y-129580000D03*
D16*
G04 #@! TO.P,D6,2,A*
G04 #@! TO.N,Net-(D1-A)*
X95130000Y-119420000D03*
G04 #@! TD*
D17*
G04 #@! TO.P,U2,1*
G04 #@! TO.N,Net-(R5-Pad1)*
X108225000Y-116305000D03*
D14*
G04 #@! TO.P,U2,2*
G04 #@! TO.N,Net-(D1-A)*
X110765000Y-116305000D03*
G04 #@! TO.P,U2,3*
G04 #@! TO.N,OT_OUT*
X110765000Y-108685000D03*
G04 #@! TO.P,U2,4*
G04 #@! TO.N,+3V3*
X108225000Y-108685000D03*
G04 #@! TD*
D12*
G04 #@! TO.P,R10,1*
G04 #@! TO.N,Net-(D10-A)*
X94970000Y-52190000D03*
G04 #@! TO.P,R10,2*
G04 #@! TO.N,ST_LED*
X94970000Y-59810000D03*
G04 #@! TD*
G04 #@! TO.P,R7,1*
G04 #@! TO.N,Net-(D5-K)*
X138630000Y-120190000D03*
G04 #@! TO.P,R7,2*
G04 #@! TO.N,Net-(D8-K)*
X138630000Y-127810000D03*
G04 #@! TD*
D18*
G04 #@! TO.P,D1,1,K*
G04 #@! TO.N,Net-(D1-K)*
X122000000Y-119420000D03*
D16*
G04 #@! TO.P,D1,2,A*
G04 #@! TO.N,Net-(D1-A)*
X122000000Y-129580000D03*
G04 #@! TD*
D19*
G04 #@! TO.P,Q1,1,C*
G04 #@! TO.N,Net-(D6-K)*
X129860000Y-124360000D03*
D20*
G04 #@! TO.P,Q1,2,B*
G04 #@! TO.N,Net-(D5-K)*
X131130000Y-124360000D03*
G04 #@! TO.P,Q1,3,E*
G04 #@! TO.N,Net-(D8-K)*
X132400000Y-124360000D03*
G04 #@! TD*
D17*
G04 #@! TO.P,D4,1,K*
G04 #@! TO.N,OT_A*
X124130000Y-146310000D03*
D14*
G04 #@! TO.P,D4,2,A*
G04 #@! TO.N,Net-(D1-A)*
X124130000Y-138690000D03*
G04 #@! TD*
D12*
G04 #@! TO.P,R6,1*
G04 #@! TO.N,Net-(D1-A)*
X110130000Y-121190000D03*
G04 #@! TO.P,R6,2*
G04 #@! TO.N,Net-(R5-Pad1)*
X110130000Y-128810000D03*
G04 #@! TD*
G04 #@! TO.P,R5,1*
G04 #@! TO.N,Net-(R5-Pad1)*
X116630000Y-128810000D03*
G04 #@! TO.P,R5,2*
G04 #@! TO.N,Net-(D6-K)*
X116630000Y-121190000D03*
G04 #@! TD*
D13*
G04 #@! TO.P,D8,1,K*
G04 #@! TO.N,Net-(D8-K)*
X130130000Y-138690000D03*
D14*
G04 #@! TO.P,D8,2,A*
G04 #@! TO.N,OT_A*
X130130000Y-146310000D03*
G04 #@! TD*
D17*
G04 #@! TO.P,D7,1,K*
G04 #@! TO.N,OT_B*
X115630000Y-146310000D03*
D14*
G04 #@! TO.P,D7,2,A*
G04 #@! TO.N,Net-(D1-A)*
X115630000Y-138690000D03*
G04 #@! TD*
D15*
G04 #@! TO.P,D5,1,K*
G04 #@! TO.N,Net-(D5-K)*
X102630000Y-129580000D03*
D16*
G04 #@! TO.P,D5,2,A*
G04 #@! TO.N,Net-(D1-A)*
X102630000Y-119420000D03*
G04 #@! TD*
D10*
G04 #@! TO.P,D3,1,K*
G04 #@! TO.N,GND*
X117770000Y-97000000D03*
D11*
G04 #@! TO.P,D3,2,A*
G04 #@! TO.N,Net-(D3-A)*
X115230000Y-97000000D03*
G04 #@! TD*
D21*
G04 #@! TO.P,J1,1,Pin_1*
G04 #@! TO.N,OT_B*
X117880000Y-155467500D03*
D22*
G04 #@! TO.P,J1,2,Pin_2*
G04 #@! TO.N,OT_A*
X122880000Y-155467500D03*
G04 #@! TD*
D23*
G04 #@! TO.P,U1,1,~{RST}*
G04 #@! TO.N,unconnected-(U1-~{RST}-Pad1)*
X88110000Y-68055000D03*
D24*
G04 #@! TO.P,U1,2,A0*
G04 #@! TO.N,unconnected-(U1-A0-Pad2)*
X90650000Y-68055000D03*
G04 #@! TO.P,U1,3,D0*
G04 #@! TO.N,unconnected-(U1-D0-Pad3)*
X93190000Y-68055000D03*
G04 #@! TO.P,U1,4,SCK/D5*
G04 #@! TO.N,unconnected-(U1-SCK{slash}D5-Pad4)*
X95730000Y-68055000D03*
G04 #@! TO.P,U1,5,MISO/D6*
G04 #@! TO.N,unconnected-(U1-MISO{slash}D6-Pad5)*
X98270000Y-68055000D03*
G04 #@! TO.P,U1,6,MOSI/D7*
G04 #@! TO.N,ST_LED*
X100810000Y-68055000D03*
G04 #@! TO.P,U1,7,CS/D8*
G04 #@! TO.N,OT_RX_LED*
X103350000Y-68055000D03*
G04 #@! TO.P,U1,8,3V3*
G04 #@! TO.N,+3V3*
X105890000Y-68055000D03*
G04 #@! TO.P,U1,9,5V*
G04 #@! TO.N,unconnected-(U1-5V-Pad9)*
X105890000Y-90915000D03*
G04 #@! TO.P,U1,10,GND*
G04 #@! TO.N,GND*
X103350000Y-90915000D03*
G04 #@! TO.P,U1,11,D4*
G04 #@! TO.N,unconnected-(U1-D4-Pad11)*
X100810000Y-90915000D03*
G04 #@! TO.P,U1,12,D3*
G04 #@! TO.N,unconnected-(U1-D3-Pad12)*
X98270000Y-90915000D03*
G04 #@! TO.P,U1,13,SDA/D2*
G04 #@! TO.N,OT_IN*
X95730000Y-90915000D03*
G04 #@! TO.P,U1,14,SCL/D1*
G04 #@! TO.N,OT_OUT*
X93190000Y-90915000D03*
G04 #@! TO.P,U1,15,RX*
G04 #@! TO.N,unconnected-(U1-RX-Pad15)*
X90650000Y-90915000D03*
G04 #@! TO.P,U1,16,TX*
G04 #@! TO.N,unconnected-(U1-TX-Pad16)*
X88110000Y-90915000D03*
G04 #@! TD*
D25*
G04 #@! TO.N,OT_OUT*
X107500000Y-104810000D02*
X107190000Y-104500000D01*
X103500000Y-104500000D02*
X93190000Y-94190000D01*
X107190000Y-104500000D02*
X103500000Y-104500000D01*
X93190000Y-94190000D02*
X93190000Y-90915000D01*
G04 #@! TO.N,+3V3*
X108225000Y-108685000D02*
X108225000Y-110225000D01*
X123000000Y-111500000D02*
X126000000Y-114500000D01*
X123500000Y-68000000D02*
X123445000Y-68055000D01*
X108225000Y-110225000D02*
X109500000Y-111500000D01*
X130500000Y-114500000D02*
X138000000Y-107000000D01*
X138000000Y-107000000D02*
X138000000Y-82500000D01*
X109500000Y-111500000D02*
X123000000Y-111500000D01*
X126000000Y-114500000D02*
X130500000Y-114500000D01*
X138000000Y-82500000D02*
X123500000Y-68000000D01*
X123445000Y-68055000D02*
X105890000Y-68055000D01*
G04 #@! TO.N,GND*
X94970000Y-46960000D02*
X111560000Y-46960000D01*
G04 #@! TO.N,ST_LED*
X100810000Y-68055000D02*
X100810000Y-65650000D01*
X100810000Y-65650000D02*
X94970000Y-59810000D01*
G04 #@! TO.N,OT_RX_LED*
X103350000Y-68055000D02*
X103350000Y-59960000D01*
X103350000Y-59960000D02*
X103500000Y-59810000D01*
G04 #@! TO.N,+3V3*
X111500000Y-59810000D02*
X111500000Y-62445000D01*
X111500000Y-62445000D02*
X105890000Y-68055000D01*
G04 #@! TO.N,OT_IN*
X127000000Y-93500000D02*
X119500000Y-86000000D01*
X127000000Y-96690000D02*
X127000000Y-93500000D01*
X119500000Y-86000000D02*
X99500000Y-86000000D01*
X99500000Y-86000000D02*
X95730000Y-89770000D01*
X95730000Y-89770000D02*
X95730000Y-90915000D01*
G04 #@! TO.N,Net-(D3-A)*
X115230000Y-97000000D02*
X112190000Y-97000000D01*
X112190000Y-97000000D02*
X112000000Y-97190000D01*
G04 #@! TO.N,GND*
X120730000Y-99960000D02*
X117770000Y-97000000D01*
X117770000Y-99730000D02*
X117770000Y-97000000D01*
X117770000Y-99730000D02*
X116000000Y-101500000D01*
X116000000Y-101500000D02*
X112000000Y-101500000D01*
X112000000Y-101500000D02*
X107690000Y-97190000D01*
X107690000Y-97190000D02*
X107500000Y-97190000D01*
X107500000Y-97190000D02*
X107190000Y-97190000D01*
X107190000Y-97190000D02*
X103350000Y-93350000D01*
X103350000Y-93350000D02*
X103350000Y-90915000D01*
G04 #@! TO.N,OT_OUT*
X107500000Y-104810000D02*
X109075000Y-104810000D01*
G04 #@! TO.N,OT_IN*
X127000000Y-96690000D02*
X134000000Y-96690000D01*
G04 #@! TO.N,Net-(D1-A)*
X102630000Y-119420000D02*
X95130000Y-119420000D01*
X110765000Y-114765000D02*
X110765000Y-116305000D01*
X93500000Y-113500000D02*
X109500000Y-113500000D01*
X112440000Y-135500000D02*
X92500000Y-135500000D01*
X109500000Y-113500000D02*
X110765000Y-114765000D01*
X89000000Y-132000000D02*
X89000000Y-118000000D01*
X110130000Y-121190000D02*
X104400000Y-121190000D01*
X92500000Y-135500000D02*
X89000000Y-132000000D01*
X122000000Y-136560000D02*
X122000000Y-132320000D01*
X115630000Y-138690000D02*
X122000000Y-132320000D01*
X110765000Y-120555000D02*
X110130000Y-121190000D01*
X89000000Y-118000000D02*
X93500000Y-113500000D01*
X124130000Y-138690000D02*
X122000000Y-136560000D01*
X115630000Y-138690000D02*
X112440000Y-135500000D01*
X110765000Y-116305000D02*
X110765000Y-120555000D01*
X122000000Y-132320000D02*
X122000000Y-129580000D01*
X104400000Y-121190000D02*
X102630000Y-119420000D01*
G04 #@! TO.N,Net-(D1-K)*
X125630000Y-119420000D02*
X128235000Y-116815000D01*
X122000000Y-119420000D02*
X125630000Y-119420000D01*
G04 #@! TO.N,Net-(D2-A)*
X126810000Y-104500000D02*
X127000000Y-104310000D01*
X123270000Y-104500000D02*
X126810000Y-104500000D01*
G04 #@! TO.N,GND*
X120730000Y-106270000D02*
X120730000Y-104500000D01*
X128235000Y-109195000D02*
X123655000Y-109195000D01*
X123655000Y-109195000D02*
X120730000Y-106270000D01*
X120730000Y-104500000D02*
X120730000Y-99960000D01*
G04 #@! TO.N,OT_A*
X122880000Y-147560000D02*
X124130000Y-146310000D01*
X124130000Y-146310000D02*
X130130000Y-146310000D01*
X122880000Y-155467500D02*
X122880000Y-147560000D01*
G04 #@! TO.N,Net-(D5-K)*
X130740000Y-126500000D02*
X131130000Y-126110000D01*
X133550000Y-120190000D02*
X130775000Y-117415000D01*
X105710000Y-126500000D02*
X130740000Y-126500000D01*
X131130000Y-126110000D02*
X131130000Y-124360000D01*
X102630000Y-129580000D02*
X105710000Y-126500000D01*
X130775000Y-117415000D02*
X130775000Y-116815000D01*
X138630000Y-120190000D02*
X133550000Y-120190000D01*
X133550000Y-120190000D02*
X131130000Y-122610000D01*
X131130000Y-122610000D02*
X131130000Y-124360000D01*
G04 #@! TO.N,Net-(D6-K)*
X100710000Y-124000000D02*
X113820000Y-124000000D01*
X116630000Y-121190000D02*
X119800000Y-124360000D01*
X113820000Y-124000000D02*
X116630000Y-121190000D01*
X119800000Y-124360000D02*
X129860000Y-124360000D01*
X95130000Y-129580000D02*
X100710000Y-124000000D01*
G04 #@! TO.N,OT_B*
X117880000Y-148560000D02*
X115630000Y-146310000D01*
X117880000Y-155467500D02*
X117880000Y-148560000D01*
X109130000Y-146310000D02*
X115630000Y-146310000D01*
G04 #@! TO.N,Net-(D8-K)*
X138630000Y-130190000D02*
X138630000Y-127810000D01*
X135180000Y-124360000D02*
X138630000Y-127810000D01*
X130130000Y-138690000D02*
X138630000Y-130190000D01*
X132400000Y-124360000D02*
X135180000Y-124360000D01*
X130130000Y-138690000D02*
X126320000Y-142500000D01*
X126320000Y-142500000D02*
X112940000Y-142500000D01*
X112940000Y-142500000D02*
X109130000Y-138690000D01*
G04 #@! TO.N,Net-(R1-Pad1)*
X134000000Y-105970000D02*
X134000000Y-104310000D01*
X130775000Y-109195000D02*
X134000000Y-105970000D01*
G04 #@! TO.N,OT_OUT*
X110765000Y-108685000D02*
X110765000Y-106500000D01*
X110765000Y-106045000D02*
X112000000Y-104810000D01*
X110765000Y-106500000D02*
X109075000Y-104810000D01*
X110765000Y-106500000D02*
X110765000Y-106045000D01*
G04 #@! TO.N,Net-(R5-Pad1)*
X105940000Y-133000000D02*
X94000000Y-133000000D01*
X116630000Y-128810000D02*
X110130000Y-128810000D01*
X94195000Y-116305000D02*
X108225000Y-116305000D01*
X94000000Y-133000000D02*
X92000000Y-131000000D01*
X92000000Y-118500000D02*
X94195000Y-116305000D01*
X110130000Y-128810000D02*
X105940000Y-133000000D01*
X92000000Y-131000000D02*
X92000000Y-118500000D01*
G04 #@! TD*
M02*
