M48
; DRILL file {KiCad 9.0.5} date 2025-11-23T21:58:28+0000
; FORMAT={-:-/ absolute / metric / decimal}
; #@! TF.CreationDate,2025-11-23T21:58:28+00:00
; #@! TF.GenerationSoftware,Kicad,Pcbnew,9.0.5
; #@! TF.FileFunction,Plated,1,2,PTH
FMAT,2
METRIC
; #@! TA.AperFunction,Plated,PTH,ComponentDrill
T1C0.700
; #@! TA.AperFunction,Plated,PTH,ComponentDrill
T2C0.750
; #@! TA.AperFunction,Plated,PTH,ComponentDrill
T3C0.800
; #@! TA.AperFunction,Plated,PTH,ComponentDrill
T4C0.900
; #@! TA.AperFunction,Plated,PTH,ComponentDrill
T5C1.100
; #@! TA.AperFunction,Plated,PTH,ComponentDrill
T6C1.300
%
G90
G05
T1
X94.97Y-52.19
X94.97Y-59.81
X103.5Y-52.19
X103.5Y-59.81
X107.5Y-97.19
X107.5Y-104.81
X110.13Y-121.19
X110.13Y-128.81
X111.5Y-52.19
X111.5Y-59.81
X112.0Y-97.19
X112.0Y-104.81
X116.63Y-121.19
X116.63Y-128.81
X127.0Y-96.69
X127.0Y-104.31
X134.0Y-96.69
X134.0Y-104.31
X138.63Y-120.19
X138.63Y-127.81
T2
X129.86Y-124.36
X131.13Y-124.36
X132.4Y-124.36
T3
X108.225Y-108.685
X108.225Y-116.305
X109.13Y-138.69
X109.13Y-146.31
X110.765Y-108.685
X110.765Y-116.305
X115.63Y-138.69
X115.63Y-146.31
X124.13Y-138.69
X124.13Y-146.31
X128.235Y-109.195
X128.235Y-116.815
X130.13Y-138.69
X130.13Y-146.31
X130.775Y-109.195
X130.775Y-116.815
T4
X88.11Y-68.055
X88.11Y-90.915
X90.65Y-68.055
X90.65Y-90.915
X93.19Y-68.055
X93.19Y-90.915
X94.97Y-46.96
X94.97Y-49.5
X95.73Y-68.055
X95.73Y-90.915
X98.27Y-68.055
X98.27Y-90.915
X100.81Y-68.055
X100.81Y-90.915
X103.35Y-68.055
X103.35Y-90.915
X103.53Y-46.96
X103.53Y-49.5
X105.89Y-68.055
X105.89Y-90.915
X111.56Y-46.96
X111.56Y-49.5
X115.23Y-97.0
X117.77Y-97.0
X120.73Y-104.5
X123.27Y-104.5
T5
X95.13Y-119.42
X95.13Y-129.58
X102.63Y-119.42
X102.63Y-129.58
X122.0Y-119.42
X122.0Y-129.58
T6
X117.88Y-155.468
X122.88Y-155.468
M30
