G04 #@! TF.GenerationSoftware,KiCad,Pcbnew,9.0.5*
G04 #@! TF.CreationDate,2025-11-23T21:58:28+00:00*
G04 #@! TF.ProjectId,OpenThermShield,4f70656e-5468-4657-926d-536869656c64,rev?*
G04 #@! TF.SameCoordinates,Original*
G04 #@! TF.FileFunction,Legend,Top*
G04 #@! TF.FilePolarity,Positive*
%FSLAX46Y46*%
G04 Gerber Fmt 4.6, Leading zero omitted, Abs format (unit mm)*
G04 Created by KiCad (PCBNEW 9.0.5) date 2025-11-23 21:58:28*
%MOMM*%
%LPD*%
G01*
G04 APERTURE LIST*
G04 Aperture macros list*
%AMRoundRect*
0 Rectangle with rounded corners*
0 $1 Rounding radius*
0 $2 $3 $4 $5 $6 $7 $8 $9 X,Y pos of 4 corners*
0 Add a 4 corners polygon primitive as box body*
4,1,4,$2,$3,$4,$5,$6,$7,$8,$9,$2,$3,0*
0 Add four circle primitives for the rounded corners*
1,1,$1+$1,$2,$3*
1,1,$1+$1,$4,$5*
1,1,$1+$1,$6,$7*
1,1,$1+$1,$8,$9*
0 Add four rect primitives between the rounded corners*
20,1,$1+$1,$2,$3,$4,$5,0*
20,1,$1+$1,$4,$5,$6,$7,0*
20,1,$1+$1,$6,$7,$8,$9,0*
20,1,$1+$1,$8,$9,$2,$3,0*%
G04 Aperture macros list end*
%ADD10C,0.150000*%
%ADD11C,0.120000*%
%ADD12R,1.800000X1.800000*%
%ADD13C,1.800000*%
%ADD14C,1.400000*%
%ADD15RoundRect,0.250000X-0.550000X0.550000X-0.550000X-0.550000X0.550000X-0.550000X0.550000X0.550000X0*%
%ADD16C,1.600000*%
%ADD17RoundRect,0.249999X0.850001X-0.850001X0.850001X0.850001X-0.850001X0.850001X-0.850001X-0.850001X0*%
%ADD18C,2.200000*%
%ADD19RoundRect,0.250000X0.550000X-0.550000X0.550000X0.550000X-0.550000X0.550000X-0.550000X-0.550000X0*%
%ADD20RoundRect,0.249999X-0.850001X0.850001X-0.850001X-0.850001X0.850001X-0.850001X0.850001X0.850001X0*%
%ADD21R,1.050000X1.500000*%
%ADD22O,1.050000X1.500000*%
%ADD23RoundRect,0.250001X-1.149999X-1.149999X1.149999X-1.149999X1.149999X1.149999X-1.149999X1.149999X0*%
%ADD24C,2.800000*%
%ADD25R,2.000000X2.000000*%
%ADD26O,1.600000X2.000000*%
G04 APERTURE END LIST*
D10*
X116654819Y-134071904D02*
X115654819Y-134071904D01*
X116654819Y-133500476D02*
X116083390Y-133929047D01*
X115654819Y-133500476D02*
X116226247Y-134071904D01*
X122154819Y-134071904D02*
X121154819Y-134071904D01*
X122154819Y-133500476D02*
X121583390Y-133929047D01*
X121154819Y-133500476D02*
X121726247Y-134071904D01*
X104854819Y-123341904D02*
X103854819Y-123341904D01*
X104854819Y-122770476D02*
X104283390Y-123199047D01*
X103854819Y-122770476D02*
X104426247Y-123341904D01*
X115754819Y-126451904D02*
X114754819Y-126451904D01*
X115754819Y-125880476D02*
X115183390Y-126309047D01*
X114754819Y-125880476D02*
X115326247Y-126451904D01*
X129754819Y-126451904D02*
X128754819Y-126451904D01*
X129754819Y-125880476D02*
X129183390Y-126309047D01*
X128754819Y-125880476D02*
X129326247Y-126451904D01*
X123924819Y-113181904D02*
X122924819Y-113181904D01*
X123924819Y-112610476D02*
X123353390Y-113039047D01*
X122924819Y-112610476D02*
X123496247Y-113181904D01*
X114974819Y-49444285D02*
X113974819Y-49444285D01*
X113974819Y-49444285D02*
X113974819Y-49206190D01*
X113974819Y-49206190D02*
X114022438Y-49063333D01*
X114022438Y-49063333D02*
X114117676Y-48968095D01*
X114117676Y-48968095D02*
X114212914Y-48920476D01*
X114212914Y-48920476D02*
X114403390Y-48872857D01*
X114403390Y-48872857D02*
X114546247Y-48872857D01*
X114546247Y-48872857D02*
X114736723Y-48920476D01*
X114736723Y-48920476D02*
X114831961Y-48968095D01*
X114831961Y-48968095D02*
X114927200Y-49063333D01*
X114927200Y-49063333D02*
X114974819Y-49206190D01*
X114974819Y-49206190D02*
X114974819Y-49444285D01*
X114974819Y-47920476D02*
X114974819Y-48491904D01*
X114974819Y-48206190D02*
X113974819Y-48206190D01*
X113974819Y-48206190D02*
X114117676Y-48301428D01*
X114117676Y-48301428D02*
X114212914Y-48396666D01*
X114212914Y-48396666D02*
X114260533Y-48491904D01*
X114070057Y-47539523D02*
X114022438Y-47491904D01*
X114022438Y-47491904D02*
X113974819Y-47396666D01*
X113974819Y-47396666D02*
X113974819Y-47158571D01*
X113974819Y-47158571D02*
X114022438Y-47063333D01*
X114022438Y-47063333D02*
X114070057Y-47015714D01*
X114070057Y-47015714D02*
X114165295Y-46968095D01*
X114165295Y-46968095D02*
X114260533Y-46968095D01*
X114260533Y-46968095D02*
X114403390Y-47015714D01*
X114403390Y-47015714D02*
X114974819Y-47587142D01*
X114974819Y-47587142D02*
X114974819Y-46968095D01*
X113874819Y-56166666D02*
X113398628Y-56499999D01*
X113874819Y-56738094D02*
X112874819Y-56738094D01*
X112874819Y-56738094D02*
X112874819Y-56357142D01*
X112874819Y-56357142D02*
X112922438Y-56261904D01*
X112922438Y-56261904D02*
X112970057Y-56214285D01*
X112970057Y-56214285D02*
X113065295Y-56166666D01*
X113065295Y-56166666D02*
X113208152Y-56166666D01*
X113208152Y-56166666D02*
X113303390Y-56214285D01*
X113303390Y-56214285D02*
X113351009Y-56261904D01*
X113351009Y-56261904D02*
X113398628Y-56357142D01*
X113398628Y-56357142D02*
X113398628Y-56738094D01*
X113303390Y-55595237D02*
X113255771Y-55690475D01*
X113255771Y-55690475D02*
X113208152Y-55738094D01*
X113208152Y-55738094D02*
X113112914Y-55785713D01*
X113112914Y-55785713D02*
X113065295Y-55785713D01*
X113065295Y-55785713D02*
X112970057Y-55738094D01*
X112970057Y-55738094D02*
X112922438Y-55690475D01*
X112922438Y-55690475D02*
X112874819Y-55595237D01*
X112874819Y-55595237D02*
X112874819Y-55404761D01*
X112874819Y-55404761D02*
X112922438Y-55309523D01*
X112922438Y-55309523D02*
X112970057Y-55261904D01*
X112970057Y-55261904D02*
X113065295Y-55214285D01*
X113065295Y-55214285D02*
X113112914Y-55214285D01*
X113112914Y-55214285D02*
X113208152Y-55261904D01*
X113208152Y-55261904D02*
X113255771Y-55309523D01*
X113255771Y-55309523D02*
X113303390Y-55404761D01*
X113303390Y-55404761D02*
X113303390Y-55595237D01*
X113303390Y-55595237D02*
X113351009Y-55690475D01*
X113351009Y-55690475D02*
X113398628Y-55738094D01*
X113398628Y-55738094D02*
X113493866Y-55785713D01*
X113493866Y-55785713D02*
X113684342Y-55785713D01*
X113684342Y-55785713D02*
X113779580Y-55738094D01*
X113779580Y-55738094D02*
X113827200Y-55690475D01*
X113827200Y-55690475D02*
X113874819Y-55595237D01*
X113874819Y-55595237D02*
X113874819Y-55404761D01*
X113874819Y-55404761D02*
X113827200Y-55309523D01*
X113827200Y-55309523D02*
X113779580Y-55261904D01*
X113779580Y-55261904D02*
X113684342Y-55214285D01*
X113684342Y-55214285D02*
X113493866Y-55214285D01*
X113493866Y-55214285D02*
X113398628Y-55261904D01*
X113398628Y-55261904D02*
X113351009Y-55309523D01*
X113351009Y-55309523D02*
X113303390Y-55404761D01*
X105874819Y-56166666D02*
X105398628Y-56499999D01*
X105874819Y-56738094D02*
X104874819Y-56738094D01*
X104874819Y-56738094D02*
X104874819Y-56357142D01*
X104874819Y-56357142D02*
X104922438Y-56261904D01*
X104922438Y-56261904D02*
X104970057Y-56214285D01*
X104970057Y-56214285D02*
X105065295Y-56166666D01*
X105065295Y-56166666D02*
X105208152Y-56166666D01*
X105208152Y-56166666D02*
X105303390Y-56214285D01*
X105303390Y-56214285D02*
X105351009Y-56261904D01*
X105351009Y-56261904D02*
X105398628Y-56357142D01*
X105398628Y-56357142D02*
X105398628Y-56738094D01*
X105874819Y-55690475D02*
X105874819Y-55499999D01*
X105874819Y-55499999D02*
X105827200Y-55404761D01*
X105827200Y-55404761D02*
X105779580Y-55357142D01*
X105779580Y-55357142D02*
X105636723Y-55261904D01*
X105636723Y-55261904D02*
X105446247Y-55214285D01*
X105446247Y-55214285D02*
X105065295Y-55214285D01*
X105065295Y-55214285D02*
X104970057Y-55261904D01*
X104970057Y-55261904D02*
X104922438Y-55309523D01*
X104922438Y-55309523D02*
X104874819Y-55404761D01*
X104874819Y-55404761D02*
X104874819Y-55595237D01*
X104874819Y-55595237D02*
X104922438Y-55690475D01*
X104922438Y-55690475D02*
X104970057Y-55738094D01*
X104970057Y-55738094D02*
X105065295Y-55785713D01*
X105065295Y-55785713D02*
X105303390Y-55785713D01*
X105303390Y-55785713D02*
X105398628Y-55738094D01*
X105398628Y-55738094D02*
X105446247Y-55690475D01*
X105446247Y-55690475D02*
X105493866Y-55595237D01*
X105493866Y-55595237D02*
X105493866Y-55404761D01*
X105493866Y-55404761D02*
X105446247Y-55309523D01*
X105446247Y-55309523D02*
X105398628Y-55261904D01*
X105398628Y-55261904D02*
X105303390Y-55214285D01*
X106944819Y-49444285D02*
X105944819Y-49444285D01*
X105944819Y-49444285D02*
X105944819Y-49206190D01*
X105944819Y-49206190D02*
X105992438Y-49063333D01*
X105992438Y-49063333D02*
X106087676Y-48968095D01*
X106087676Y-48968095D02*
X106182914Y-48920476D01*
X106182914Y-48920476D02*
X106373390Y-48872857D01*
X106373390Y-48872857D02*
X106516247Y-48872857D01*
X106516247Y-48872857D02*
X106706723Y-48920476D01*
X106706723Y-48920476D02*
X106801961Y-48968095D01*
X106801961Y-48968095D02*
X106897200Y-49063333D01*
X106897200Y-49063333D02*
X106944819Y-49206190D01*
X106944819Y-49206190D02*
X106944819Y-49444285D01*
X106944819Y-47920476D02*
X106944819Y-48491904D01*
X106944819Y-48206190D02*
X105944819Y-48206190D01*
X105944819Y-48206190D02*
X106087676Y-48301428D01*
X106087676Y-48301428D02*
X106182914Y-48396666D01*
X106182914Y-48396666D02*
X106230533Y-48491904D01*
X106944819Y-46968095D02*
X106944819Y-47539523D01*
X106944819Y-47253809D02*
X105944819Y-47253809D01*
X105944819Y-47253809D02*
X106087676Y-47349047D01*
X106087676Y-47349047D02*
X106182914Y-47444285D01*
X106182914Y-47444285D02*
X106230533Y-47539523D01*
X98384819Y-49444285D02*
X97384819Y-49444285D01*
X97384819Y-49444285D02*
X97384819Y-49206190D01*
X97384819Y-49206190D02*
X97432438Y-49063333D01*
X97432438Y-49063333D02*
X97527676Y-48968095D01*
X97527676Y-48968095D02*
X97622914Y-48920476D01*
X97622914Y-48920476D02*
X97813390Y-48872857D01*
X97813390Y-48872857D02*
X97956247Y-48872857D01*
X97956247Y-48872857D02*
X98146723Y-48920476D01*
X98146723Y-48920476D02*
X98241961Y-48968095D01*
X98241961Y-48968095D02*
X98337200Y-49063333D01*
X98337200Y-49063333D02*
X98384819Y-49206190D01*
X98384819Y-49206190D02*
X98384819Y-49444285D01*
X98384819Y-47920476D02*
X98384819Y-48491904D01*
X98384819Y-48206190D02*
X97384819Y-48206190D01*
X97384819Y-48206190D02*
X97527676Y-48301428D01*
X97527676Y-48301428D02*
X97622914Y-48396666D01*
X97622914Y-48396666D02*
X97670533Y-48491904D01*
X97384819Y-47301428D02*
X97384819Y-47206190D01*
X97384819Y-47206190D02*
X97432438Y-47110952D01*
X97432438Y-47110952D02*
X97480057Y-47063333D01*
X97480057Y-47063333D02*
X97575295Y-47015714D01*
X97575295Y-47015714D02*
X97765771Y-46968095D01*
X97765771Y-46968095D02*
X98003866Y-46968095D01*
X98003866Y-46968095D02*
X98194342Y-47015714D01*
X98194342Y-47015714D02*
X98289580Y-47063333D01*
X98289580Y-47063333D02*
X98337200Y-47110952D01*
X98337200Y-47110952D02*
X98384819Y-47206190D01*
X98384819Y-47206190D02*
X98384819Y-47301428D01*
X98384819Y-47301428D02*
X98337200Y-47396666D01*
X98337200Y-47396666D02*
X98289580Y-47444285D01*
X98289580Y-47444285D02*
X98194342Y-47491904D01*
X98194342Y-47491904D02*
X98003866Y-47539523D01*
X98003866Y-47539523D02*
X97765771Y-47539523D01*
X97765771Y-47539523D02*
X97575295Y-47491904D01*
X97575295Y-47491904D02*
X97480057Y-47444285D01*
X97480057Y-47444285D02*
X97432438Y-47396666D01*
X97432438Y-47396666D02*
X97384819Y-47301428D01*
X121261905Y-101994819D02*
X121261905Y-100994819D01*
X121261905Y-100994819D02*
X121500000Y-100994819D01*
X121500000Y-100994819D02*
X121642857Y-101042438D01*
X121642857Y-101042438D02*
X121738095Y-101137676D01*
X121738095Y-101137676D02*
X121785714Y-101232914D01*
X121785714Y-101232914D02*
X121833333Y-101423390D01*
X121833333Y-101423390D02*
X121833333Y-101566247D01*
X121833333Y-101566247D02*
X121785714Y-101756723D01*
X121785714Y-101756723D02*
X121738095Y-101851961D01*
X121738095Y-101851961D02*
X121642857Y-101947200D01*
X121642857Y-101947200D02*
X121500000Y-101994819D01*
X121500000Y-101994819D02*
X121261905Y-101994819D01*
X122214286Y-101090057D02*
X122261905Y-101042438D01*
X122261905Y-101042438D02*
X122357143Y-100994819D01*
X122357143Y-100994819D02*
X122595238Y-100994819D01*
X122595238Y-100994819D02*
X122690476Y-101042438D01*
X122690476Y-101042438D02*
X122738095Y-101090057D01*
X122738095Y-101090057D02*
X122785714Y-101185295D01*
X122785714Y-101185295D02*
X122785714Y-101280533D01*
X122785714Y-101280533D02*
X122738095Y-101423390D01*
X122738095Y-101423390D02*
X122166667Y-101994819D01*
X122166667Y-101994819D02*
X122785714Y-101994819D01*
X107584819Y-143238094D02*
X106584819Y-143238094D01*
X106584819Y-143238094D02*
X106584819Y-142999999D01*
X106584819Y-142999999D02*
X106632438Y-142857142D01*
X106632438Y-142857142D02*
X106727676Y-142761904D01*
X106727676Y-142761904D02*
X106822914Y-142714285D01*
X106822914Y-142714285D02*
X107013390Y-142666666D01*
X107013390Y-142666666D02*
X107156247Y-142666666D01*
X107156247Y-142666666D02*
X107346723Y-142714285D01*
X107346723Y-142714285D02*
X107441961Y-142761904D01*
X107441961Y-142761904D02*
X107537200Y-142857142D01*
X107537200Y-142857142D02*
X107584819Y-142999999D01*
X107584819Y-142999999D02*
X107584819Y-143238094D01*
X107584819Y-142190475D02*
X107584819Y-141999999D01*
X107584819Y-141999999D02*
X107537200Y-141904761D01*
X107537200Y-141904761D02*
X107489580Y-141857142D01*
X107489580Y-141857142D02*
X107346723Y-141761904D01*
X107346723Y-141761904D02*
X107156247Y-141714285D01*
X107156247Y-141714285D02*
X106775295Y-141714285D01*
X106775295Y-141714285D02*
X106680057Y-141761904D01*
X106680057Y-141761904D02*
X106632438Y-141809523D01*
X106632438Y-141809523D02*
X106584819Y-141904761D01*
X106584819Y-141904761D02*
X106584819Y-142095237D01*
X106584819Y-142095237D02*
X106632438Y-142190475D01*
X106632438Y-142190475D02*
X106680057Y-142238094D01*
X106680057Y-142238094D02*
X106775295Y-142285713D01*
X106775295Y-142285713D02*
X107013390Y-142285713D01*
X107013390Y-142285713D02*
X107108628Y-142238094D01*
X107108628Y-142238094D02*
X107156247Y-142190475D01*
X107156247Y-142190475D02*
X107203866Y-142095237D01*
X107203866Y-142095237D02*
X107203866Y-141904761D01*
X107203866Y-141904761D02*
X107156247Y-141809523D01*
X107156247Y-141809523D02*
X107108628Y-141761904D01*
X107108628Y-141761904D02*
X107013390Y-141714285D01*
X111384819Y-138951904D02*
X110384819Y-138951904D01*
X111384819Y-138380476D02*
X110813390Y-138809047D01*
X110384819Y-138380476D02*
X110956247Y-138951904D01*
X125534819Y-100666666D02*
X125058628Y-100999999D01*
X125534819Y-101238094D02*
X124534819Y-101238094D01*
X124534819Y-101238094D02*
X124534819Y-100857142D01*
X124534819Y-100857142D02*
X124582438Y-100761904D01*
X124582438Y-100761904D02*
X124630057Y-100714285D01*
X124630057Y-100714285D02*
X124725295Y-100666666D01*
X124725295Y-100666666D02*
X124868152Y-100666666D01*
X124868152Y-100666666D02*
X124963390Y-100714285D01*
X124963390Y-100714285D02*
X125011009Y-100761904D01*
X125011009Y-100761904D02*
X125058628Y-100857142D01*
X125058628Y-100857142D02*
X125058628Y-101238094D01*
X124630057Y-100285713D02*
X124582438Y-100238094D01*
X124582438Y-100238094D02*
X124534819Y-100142856D01*
X124534819Y-100142856D02*
X124534819Y-99904761D01*
X124534819Y-99904761D02*
X124582438Y-99809523D01*
X124582438Y-99809523D02*
X124630057Y-99761904D01*
X124630057Y-99761904D02*
X124725295Y-99714285D01*
X124725295Y-99714285D02*
X124820533Y-99714285D01*
X124820533Y-99714285D02*
X124963390Y-99761904D01*
X124963390Y-99761904D02*
X125534819Y-100333332D01*
X125534819Y-100333332D02*
X125534819Y-99714285D01*
X132559819Y-113766904D02*
X133369342Y-113766904D01*
X133369342Y-113766904D02*
X133464580Y-113719285D01*
X133464580Y-113719285D02*
X133512200Y-113671666D01*
X133512200Y-113671666D02*
X133559819Y-113576428D01*
X133559819Y-113576428D02*
X133559819Y-113385952D01*
X133559819Y-113385952D02*
X133512200Y-113290714D01*
X133512200Y-113290714D02*
X133464580Y-113243095D01*
X133464580Y-113243095D02*
X133369342Y-113195476D01*
X133369342Y-113195476D02*
X132559819Y-113195476D01*
X132559819Y-112814523D02*
X132559819Y-112195476D01*
X132559819Y-112195476D02*
X132940771Y-112528809D01*
X132940771Y-112528809D02*
X132940771Y-112385952D01*
X132940771Y-112385952D02*
X132988390Y-112290714D01*
X132988390Y-112290714D02*
X133036009Y-112243095D01*
X133036009Y-112243095D02*
X133131247Y-112195476D01*
X133131247Y-112195476D02*
X133369342Y-112195476D01*
X133369342Y-112195476D02*
X133464580Y-112243095D01*
X133464580Y-112243095D02*
X133512200Y-112290714D01*
X133512200Y-112290714D02*
X133559819Y-112385952D01*
X133559819Y-112385952D02*
X133559819Y-112671666D01*
X133559819Y-112671666D02*
X133512200Y-112766904D01*
X133512200Y-112766904D02*
X133464580Y-112814523D01*
X109874819Y-101166666D02*
X109398628Y-101499999D01*
X109874819Y-101738094D02*
X108874819Y-101738094D01*
X108874819Y-101738094D02*
X108874819Y-101357142D01*
X108874819Y-101357142D02*
X108922438Y-101261904D01*
X108922438Y-101261904D02*
X108970057Y-101214285D01*
X108970057Y-101214285D02*
X109065295Y-101166666D01*
X109065295Y-101166666D02*
X109208152Y-101166666D01*
X109208152Y-101166666D02*
X109303390Y-101214285D01*
X109303390Y-101214285D02*
X109351009Y-101261904D01*
X109351009Y-101261904D02*
X109398628Y-101357142D01*
X109398628Y-101357142D02*
X109398628Y-101738094D01*
X108874819Y-100833332D02*
X108874819Y-100214285D01*
X108874819Y-100214285D02*
X109255771Y-100547618D01*
X109255771Y-100547618D02*
X109255771Y-100404761D01*
X109255771Y-100404761D02*
X109303390Y-100309523D01*
X109303390Y-100309523D02*
X109351009Y-100261904D01*
X109351009Y-100261904D02*
X109446247Y-100214285D01*
X109446247Y-100214285D02*
X109684342Y-100214285D01*
X109684342Y-100214285D02*
X109779580Y-100261904D01*
X109779580Y-100261904D02*
X109827200Y-100309523D01*
X109827200Y-100309523D02*
X109874819Y-100404761D01*
X109874819Y-100404761D02*
X109874819Y-100690475D01*
X109874819Y-100690475D02*
X109827200Y-100785713D01*
X109827200Y-100785713D02*
X109779580Y-100833332D01*
X132534819Y-100666666D02*
X132058628Y-100999999D01*
X132534819Y-101238094D02*
X131534819Y-101238094D01*
X131534819Y-101238094D02*
X131534819Y-100857142D01*
X131534819Y-100857142D02*
X131582438Y-100761904D01*
X131582438Y-100761904D02*
X131630057Y-100714285D01*
X131630057Y-100714285D02*
X131725295Y-100666666D01*
X131725295Y-100666666D02*
X131868152Y-100666666D01*
X131868152Y-100666666D02*
X131963390Y-100714285D01*
X131963390Y-100714285D02*
X132011009Y-100761904D01*
X132011009Y-100761904D02*
X132058628Y-100857142D01*
X132058628Y-100857142D02*
X132058628Y-101238094D01*
X132534819Y-99714285D02*
X132534819Y-100285713D01*
X132534819Y-99999999D02*
X131534819Y-99999999D01*
X131534819Y-99999999D02*
X131677676Y-100095237D01*
X131677676Y-100095237D02*
X131772914Y-100190475D01*
X131772914Y-100190475D02*
X131820533Y-100285713D01*
X114374819Y-101166666D02*
X113898628Y-101499999D01*
X114374819Y-101738094D02*
X113374819Y-101738094D01*
X113374819Y-101738094D02*
X113374819Y-101357142D01*
X113374819Y-101357142D02*
X113422438Y-101261904D01*
X113422438Y-101261904D02*
X113470057Y-101214285D01*
X113470057Y-101214285D02*
X113565295Y-101166666D01*
X113565295Y-101166666D02*
X113708152Y-101166666D01*
X113708152Y-101166666D02*
X113803390Y-101214285D01*
X113803390Y-101214285D02*
X113851009Y-101261904D01*
X113851009Y-101261904D02*
X113898628Y-101357142D01*
X113898628Y-101357142D02*
X113898628Y-101738094D01*
X113708152Y-100309523D02*
X114374819Y-100309523D01*
X113327200Y-100547618D02*
X114041485Y-100785713D01*
X114041485Y-100785713D02*
X114041485Y-100166666D01*
X93114819Y-125238094D02*
X92114819Y-125238094D01*
X92114819Y-125238094D02*
X92114819Y-124999999D01*
X92114819Y-124999999D02*
X92162438Y-124857142D01*
X92162438Y-124857142D02*
X92257676Y-124761904D01*
X92257676Y-124761904D02*
X92352914Y-124714285D01*
X92352914Y-124714285D02*
X92543390Y-124666666D01*
X92543390Y-124666666D02*
X92686247Y-124666666D01*
X92686247Y-124666666D02*
X92876723Y-124714285D01*
X92876723Y-124714285D02*
X92971961Y-124761904D01*
X92971961Y-124761904D02*
X93067200Y-124857142D01*
X93067200Y-124857142D02*
X93114819Y-124999999D01*
X93114819Y-124999999D02*
X93114819Y-125238094D01*
X92114819Y-123809523D02*
X92114819Y-123999999D01*
X92114819Y-123999999D02*
X92162438Y-124095237D01*
X92162438Y-124095237D02*
X92210057Y-124142856D01*
X92210057Y-124142856D02*
X92352914Y-124238094D01*
X92352914Y-124238094D02*
X92543390Y-124285713D01*
X92543390Y-124285713D02*
X92924342Y-124285713D01*
X92924342Y-124285713D02*
X93019580Y-124238094D01*
X93019580Y-124238094D02*
X93067200Y-124190475D01*
X93067200Y-124190475D02*
X93114819Y-124095237D01*
X93114819Y-124095237D02*
X93114819Y-123904761D01*
X93114819Y-123904761D02*
X93067200Y-123809523D01*
X93067200Y-123809523D02*
X93019580Y-123761904D01*
X93019580Y-123761904D02*
X92924342Y-123714285D01*
X92924342Y-123714285D02*
X92686247Y-123714285D01*
X92686247Y-123714285D02*
X92591009Y-123761904D01*
X92591009Y-123761904D02*
X92543390Y-123809523D01*
X92543390Y-123809523D02*
X92495771Y-123904761D01*
X92495771Y-123904761D02*
X92495771Y-124095237D01*
X92495771Y-124095237D02*
X92543390Y-124190475D01*
X92543390Y-124190475D02*
X92591009Y-124238094D01*
X92591009Y-124238094D02*
X92686247Y-124285713D01*
X93484819Y-129841904D02*
X92484819Y-129841904D01*
X93484819Y-129270476D02*
X92913390Y-129699047D01*
X92484819Y-129270476D02*
X93056247Y-129841904D01*
X105349819Y-113256904D02*
X106159342Y-113256904D01*
X106159342Y-113256904D02*
X106254580Y-113209285D01*
X106254580Y-113209285D02*
X106302200Y-113161666D01*
X106302200Y-113161666D02*
X106349819Y-113066428D01*
X106349819Y-113066428D02*
X106349819Y-112875952D01*
X106349819Y-112875952D02*
X106302200Y-112780714D01*
X106302200Y-112780714D02*
X106254580Y-112733095D01*
X106254580Y-112733095D02*
X106159342Y-112685476D01*
X106159342Y-112685476D02*
X105349819Y-112685476D01*
X105445057Y-112256904D02*
X105397438Y-112209285D01*
X105397438Y-112209285D02*
X105349819Y-112114047D01*
X105349819Y-112114047D02*
X105349819Y-111875952D01*
X105349819Y-111875952D02*
X105397438Y-111780714D01*
X105397438Y-111780714D02*
X105445057Y-111733095D01*
X105445057Y-111733095D02*
X105540295Y-111685476D01*
X105540295Y-111685476D02*
X105635533Y-111685476D01*
X105635533Y-111685476D02*
X105778390Y-111733095D01*
X105778390Y-111733095D02*
X106349819Y-112304523D01*
X106349819Y-112304523D02*
X106349819Y-111685476D01*
X97344819Y-56642857D02*
X96868628Y-56976190D01*
X97344819Y-57214285D02*
X96344819Y-57214285D01*
X96344819Y-57214285D02*
X96344819Y-56833333D01*
X96344819Y-56833333D02*
X96392438Y-56738095D01*
X96392438Y-56738095D02*
X96440057Y-56690476D01*
X96440057Y-56690476D02*
X96535295Y-56642857D01*
X96535295Y-56642857D02*
X96678152Y-56642857D01*
X96678152Y-56642857D02*
X96773390Y-56690476D01*
X96773390Y-56690476D02*
X96821009Y-56738095D01*
X96821009Y-56738095D02*
X96868628Y-56833333D01*
X96868628Y-56833333D02*
X96868628Y-57214285D01*
X97344819Y-55690476D02*
X97344819Y-56261904D01*
X97344819Y-55976190D02*
X96344819Y-55976190D01*
X96344819Y-55976190D02*
X96487676Y-56071428D01*
X96487676Y-56071428D02*
X96582914Y-56166666D01*
X96582914Y-56166666D02*
X96630533Y-56261904D01*
X96344819Y-55071428D02*
X96344819Y-54976190D01*
X96344819Y-54976190D02*
X96392438Y-54880952D01*
X96392438Y-54880952D02*
X96440057Y-54833333D01*
X96440057Y-54833333D02*
X96535295Y-54785714D01*
X96535295Y-54785714D02*
X96725771Y-54738095D01*
X96725771Y-54738095D02*
X96963866Y-54738095D01*
X96963866Y-54738095D02*
X97154342Y-54785714D01*
X97154342Y-54785714D02*
X97249580Y-54833333D01*
X97249580Y-54833333D02*
X97297200Y-54880952D01*
X97297200Y-54880952D02*
X97344819Y-54976190D01*
X97344819Y-54976190D02*
X97344819Y-55071428D01*
X97344819Y-55071428D02*
X97297200Y-55166666D01*
X97297200Y-55166666D02*
X97249580Y-55214285D01*
X97249580Y-55214285D02*
X97154342Y-55261904D01*
X97154342Y-55261904D02*
X96963866Y-55309523D01*
X96963866Y-55309523D02*
X96725771Y-55309523D01*
X96725771Y-55309523D02*
X96535295Y-55261904D01*
X96535295Y-55261904D02*
X96440057Y-55214285D01*
X96440057Y-55214285D02*
X96392438Y-55166666D01*
X96392438Y-55166666D02*
X96344819Y-55071428D01*
X141004819Y-124166666D02*
X140528628Y-124499999D01*
X141004819Y-124738094D02*
X140004819Y-124738094D01*
X140004819Y-124738094D02*
X140004819Y-124357142D01*
X140004819Y-124357142D02*
X140052438Y-124261904D01*
X140052438Y-124261904D02*
X140100057Y-124214285D01*
X140100057Y-124214285D02*
X140195295Y-124166666D01*
X140195295Y-124166666D02*
X140338152Y-124166666D01*
X140338152Y-124166666D02*
X140433390Y-124214285D01*
X140433390Y-124214285D02*
X140481009Y-124261904D01*
X140481009Y-124261904D02*
X140528628Y-124357142D01*
X140528628Y-124357142D02*
X140528628Y-124738094D01*
X140004819Y-123833332D02*
X140004819Y-123166666D01*
X140004819Y-123166666D02*
X141004819Y-123595237D01*
X122584819Y-125238094D02*
X121584819Y-125238094D01*
X121584819Y-125238094D02*
X121584819Y-124999999D01*
X121584819Y-124999999D02*
X121632438Y-124857142D01*
X121632438Y-124857142D02*
X121727676Y-124761904D01*
X121727676Y-124761904D02*
X121822914Y-124714285D01*
X121822914Y-124714285D02*
X122013390Y-124666666D01*
X122013390Y-124666666D02*
X122156247Y-124666666D01*
X122156247Y-124666666D02*
X122346723Y-124714285D01*
X122346723Y-124714285D02*
X122441961Y-124761904D01*
X122441961Y-124761904D02*
X122537200Y-124857142D01*
X122537200Y-124857142D02*
X122584819Y-124999999D01*
X122584819Y-124999999D02*
X122584819Y-125238094D01*
X122584819Y-123714285D02*
X122584819Y-124285713D01*
X122584819Y-123999999D02*
X121584819Y-123999999D01*
X121584819Y-123999999D02*
X121727676Y-124095237D01*
X121727676Y-124095237D02*
X121822914Y-124190475D01*
X121822914Y-124190475D02*
X121870533Y-124285713D01*
X124554819Y-119681904D02*
X123554819Y-119681904D01*
X124554819Y-119110476D02*
X123983390Y-119539047D01*
X123554819Y-119110476D02*
X124126247Y-119681904D01*
X131034761Y-121350057D02*
X130939523Y-121302438D01*
X130939523Y-121302438D02*
X130844285Y-121207200D01*
X130844285Y-121207200D02*
X130701428Y-121064342D01*
X130701428Y-121064342D02*
X130606190Y-121016723D01*
X130606190Y-121016723D02*
X130510952Y-121016723D01*
X130558571Y-121254819D02*
X130463333Y-121207200D01*
X130463333Y-121207200D02*
X130368095Y-121111961D01*
X130368095Y-121111961D02*
X130320476Y-120921485D01*
X130320476Y-120921485D02*
X130320476Y-120588152D01*
X130320476Y-120588152D02*
X130368095Y-120397676D01*
X130368095Y-120397676D02*
X130463333Y-120302438D01*
X130463333Y-120302438D02*
X130558571Y-120254819D01*
X130558571Y-120254819D02*
X130749047Y-120254819D01*
X130749047Y-120254819D02*
X130844285Y-120302438D01*
X130844285Y-120302438D02*
X130939523Y-120397676D01*
X130939523Y-120397676D02*
X130987142Y-120588152D01*
X130987142Y-120588152D02*
X130987142Y-120921485D01*
X130987142Y-120921485D02*
X130939523Y-121111961D01*
X130939523Y-121111961D02*
X130844285Y-121207200D01*
X130844285Y-121207200D02*
X130749047Y-121254819D01*
X130749047Y-121254819D02*
X130558571Y-121254819D01*
X131939523Y-121254819D02*
X131368095Y-121254819D01*
X131653809Y-121254819D02*
X131653809Y-120254819D01*
X131653809Y-120254819D02*
X131558571Y-120397676D01*
X131558571Y-120397676D02*
X131463333Y-120492914D01*
X131463333Y-120492914D02*
X131368095Y-120540533D01*
X122464819Y-143238094D02*
X121464819Y-143238094D01*
X121464819Y-143238094D02*
X121464819Y-142999999D01*
X121464819Y-142999999D02*
X121512438Y-142857142D01*
X121512438Y-142857142D02*
X121607676Y-142761904D01*
X121607676Y-142761904D02*
X121702914Y-142714285D01*
X121702914Y-142714285D02*
X121893390Y-142666666D01*
X121893390Y-142666666D02*
X122036247Y-142666666D01*
X122036247Y-142666666D02*
X122226723Y-142714285D01*
X122226723Y-142714285D02*
X122321961Y-142761904D01*
X122321961Y-142761904D02*
X122417200Y-142857142D01*
X122417200Y-142857142D02*
X122464819Y-142999999D01*
X122464819Y-142999999D02*
X122464819Y-143238094D01*
X121798152Y-141809523D02*
X122464819Y-141809523D01*
X121417200Y-142047618D02*
X122131485Y-142285713D01*
X122131485Y-142285713D02*
X122131485Y-141666666D01*
X122784819Y-146571904D02*
X121784819Y-146571904D01*
X122784819Y-146000476D02*
X122213390Y-146429047D01*
X121784819Y-146000476D02*
X122356247Y-146571904D01*
X108584819Y-125166666D02*
X108108628Y-125499999D01*
X108584819Y-125738094D02*
X107584819Y-125738094D01*
X107584819Y-125738094D02*
X107584819Y-125357142D01*
X107584819Y-125357142D02*
X107632438Y-125261904D01*
X107632438Y-125261904D02*
X107680057Y-125214285D01*
X107680057Y-125214285D02*
X107775295Y-125166666D01*
X107775295Y-125166666D02*
X107918152Y-125166666D01*
X107918152Y-125166666D02*
X108013390Y-125214285D01*
X108013390Y-125214285D02*
X108061009Y-125261904D01*
X108061009Y-125261904D02*
X108108628Y-125357142D01*
X108108628Y-125357142D02*
X108108628Y-125738094D01*
X107584819Y-124309523D02*
X107584819Y-124499999D01*
X107584819Y-124499999D02*
X107632438Y-124595237D01*
X107632438Y-124595237D02*
X107680057Y-124642856D01*
X107680057Y-124642856D02*
X107822914Y-124738094D01*
X107822914Y-124738094D02*
X108013390Y-124785713D01*
X108013390Y-124785713D02*
X108394342Y-124785713D01*
X108394342Y-124785713D02*
X108489580Y-124738094D01*
X108489580Y-124738094D02*
X108537200Y-124690475D01*
X108537200Y-124690475D02*
X108584819Y-124595237D01*
X108584819Y-124595237D02*
X108584819Y-124404761D01*
X108584819Y-124404761D02*
X108537200Y-124309523D01*
X108537200Y-124309523D02*
X108489580Y-124261904D01*
X108489580Y-124261904D02*
X108394342Y-124214285D01*
X108394342Y-124214285D02*
X108156247Y-124214285D01*
X108156247Y-124214285D02*
X108061009Y-124261904D01*
X108061009Y-124261904D02*
X108013390Y-124309523D01*
X108013390Y-124309523D02*
X107965771Y-124404761D01*
X107965771Y-124404761D02*
X107965771Y-124595237D01*
X107965771Y-124595237D02*
X108013390Y-124690475D01*
X108013390Y-124690475D02*
X108061009Y-124738094D01*
X108061009Y-124738094D02*
X108156247Y-124785713D01*
X115164819Y-125166666D02*
X114688628Y-125499999D01*
X115164819Y-125738094D02*
X114164819Y-125738094D01*
X114164819Y-125738094D02*
X114164819Y-125357142D01*
X114164819Y-125357142D02*
X114212438Y-125261904D01*
X114212438Y-125261904D02*
X114260057Y-125214285D01*
X114260057Y-125214285D02*
X114355295Y-125166666D01*
X114355295Y-125166666D02*
X114498152Y-125166666D01*
X114498152Y-125166666D02*
X114593390Y-125214285D01*
X114593390Y-125214285D02*
X114641009Y-125261904D01*
X114641009Y-125261904D02*
X114688628Y-125357142D01*
X114688628Y-125357142D02*
X114688628Y-125738094D01*
X114164819Y-124261904D02*
X114164819Y-124738094D01*
X114164819Y-124738094D02*
X114641009Y-124785713D01*
X114641009Y-124785713D02*
X114593390Y-124738094D01*
X114593390Y-124738094D02*
X114545771Y-124642856D01*
X114545771Y-124642856D02*
X114545771Y-124404761D01*
X114545771Y-124404761D02*
X114593390Y-124309523D01*
X114593390Y-124309523D02*
X114641009Y-124261904D01*
X114641009Y-124261904D02*
X114736247Y-124214285D01*
X114736247Y-124214285D02*
X114974342Y-124214285D01*
X114974342Y-124214285D02*
X115069580Y-124261904D01*
X115069580Y-124261904D02*
X115117200Y-124309523D01*
X115117200Y-124309523D02*
X115164819Y-124404761D01*
X115164819Y-124404761D02*
X115164819Y-124642856D01*
X115164819Y-124642856D02*
X115117200Y-124738094D01*
X115117200Y-124738094D02*
X115069580Y-124785713D01*
X132704819Y-143238094D02*
X131704819Y-143238094D01*
X131704819Y-143238094D02*
X131704819Y-142999999D01*
X131704819Y-142999999D02*
X131752438Y-142857142D01*
X131752438Y-142857142D02*
X131847676Y-142761904D01*
X131847676Y-142761904D02*
X131942914Y-142714285D01*
X131942914Y-142714285D02*
X132133390Y-142666666D01*
X132133390Y-142666666D02*
X132276247Y-142666666D01*
X132276247Y-142666666D02*
X132466723Y-142714285D01*
X132466723Y-142714285D02*
X132561961Y-142761904D01*
X132561961Y-142761904D02*
X132657200Y-142857142D01*
X132657200Y-142857142D02*
X132704819Y-142999999D01*
X132704819Y-142999999D02*
X132704819Y-143238094D01*
X132133390Y-142095237D02*
X132085771Y-142190475D01*
X132085771Y-142190475D02*
X132038152Y-142238094D01*
X132038152Y-142238094D02*
X131942914Y-142285713D01*
X131942914Y-142285713D02*
X131895295Y-142285713D01*
X131895295Y-142285713D02*
X131800057Y-142238094D01*
X131800057Y-142238094D02*
X131752438Y-142190475D01*
X131752438Y-142190475D02*
X131704819Y-142095237D01*
X131704819Y-142095237D02*
X131704819Y-141904761D01*
X131704819Y-141904761D02*
X131752438Y-141809523D01*
X131752438Y-141809523D02*
X131800057Y-141761904D01*
X131800057Y-141761904D02*
X131895295Y-141714285D01*
X131895295Y-141714285D02*
X131942914Y-141714285D01*
X131942914Y-141714285D02*
X132038152Y-141761904D01*
X132038152Y-141761904D02*
X132085771Y-141809523D01*
X132085771Y-141809523D02*
X132133390Y-141904761D01*
X132133390Y-141904761D02*
X132133390Y-142095237D01*
X132133390Y-142095237D02*
X132181009Y-142190475D01*
X132181009Y-142190475D02*
X132228628Y-142238094D01*
X132228628Y-142238094D02*
X132323866Y-142285713D01*
X132323866Y-142285713D02*
X132514342Y-142285713D01*
X132514342Y-142285713D02*
X132609580Y-142238094D01*
X132609580Y-142238094D02*
X132657200Y-142190475D01*
X132657200Y-142190475D02*
X132704819Y-142095237D01*
X132704819Y-142095237D02*
X132704819Y-141904761D01*
X132704819Y-141904761D02*
X132657200Y-141809523D01*
X132657200Y-141809523D02*
X132609580Y-141761904D01*
X132609580Y-141761904D02*
X132514342Y-141714285D01*
X132514342Y-141714285D02*
X132323866Y-141714285D01*
X132323866Y-141714285D02*
X132228628Y-141761904D01*
X132228628Y-141761904D02*
X132181009Y-141809523D01*
X132181009Y-141809523D02*
X132133390Y-141904761D01*
X132384819Y-138951904D02*
X131384819Y-138951904D01*
X132384819Y-138380476D02*
X131813390Y-138809047D01*
X131384819Y-138380476D02*
X131956247Y-138951904D01*
X113964819Y-143238094D02*
X112964819Y-143238094D01*
X112964819Y-143238094D02*
X112964819Y-142999999D01*
X112964819Y-142999999D02*
X113012438Y-142857142D01*
X113012438Y-142857142D02*
X113107676Y-142761904D01*
X113107676Y-142761904D02*
X113202914Y-142714285D01*
X113202914Y-142714285D02*
X113393390Y-142666666D01*
X113393390Y-142666666D02*
X113536247Y-142666666D01*
X113536247Y-142666666D02*
X113726723Y-142714285D01*
X113726723Y-142714285D02*
X113821961Y-142761904D01*
X113821961Y-142761904D02*
X113917200Y-142857142D01*
X113917200Y-142857142D02*
X113964819Y-142999999D01*
X113964819Y-142999999D02*
X113964819Y-143238094D01*
X112964819Y-142333332D02*
X112964819Y-141666666D01*
X112964819Y-141666666D02*
X113964819Y-142095237D01*
X114284819Y-146571904D02*
X113284819Y-146571904D01*
X114284819Y-146000476D02*
X113713390Y-146429047D01*
X113284819Y-146000476D02*
X113856247Y-146571904D01*
X100614819Y-125238094D02*
X99614819Y-125238094D01*
X99614819Y-125238094D02*
X99614819Y-124999999D01*
X99614819Y-124999999D02*
X99662438Y-124857142D01*
X99662438Y-124857142D02*
X99757676Y-124761904D01*
X99757676Y-124761904D02*
X99852914Y-124714285D01*
X99852914Y-124714285D02*
X100043390Y-124666666D01*
X100043390Y-124666666D02*
X100186247Y-124666666D01*
X100186247Y-124666666D02*
X100376723Y-124714285D01*
X100376723Y-124714285D02*
X100471961Y-124761904D01*
X100471961Y-124761904D02*
X100567200Y-124857142D01*
X100567200Y-124857142D02*
X100614819Y-124999999D01*
X100614819Y-124999999D02*
X100614819Y-125238094D01*
X99614819Y-123761904D02*
X99614819Y-124238094D01*
X99614819Y-124238094D02*
X100091009Y-124285713D01*
X100091009Y-124285713D02*
X100043390Y-124238094D01*
X100043390Y-124238094D02*
X99995771Y-124142856D01*
X99995771Y-124142856D02*
X99995771Y-123904761D01*
X99995771Y-123904761D02*
X100043390Y-123809523D01*
X100043390Y-123809523D02*
X100091009Y-123761904D01*
X100091009Y-123761904D02*
X100186247Y-123714285D01*
X100186247Y-123714285D02*
X100424342Y-123714285D01*
X100424342Y-123714285D02*
X100519580Y-123761904D01*
X100519580Y-123761904D02*
X100567200Y-123809523D01*
X100567200Y-123809523D02*
X100614819Y-123904761D01*
X100614819Y-123904761D02*
X100614819Y-124142856D01*
X100614819Y-124142856D02*
X100567200Y-124238094D01*
X100567200Y-124238094D02*
X100519580Y-124285713D01*
X100984819Y-129841904D02*
X99984819Y-129841904D01*
X100984819Y-129270476D02*
X100413390Y-129699047D01*
X99984819Y-129270476D02*
X100556247Y-129841904D01*
X115761905Y-100414819D02*
X115761905Y-99414819D01*
X115761905Y-99414819D02*
X116000000Y-99414819D01*
X116000000Y-99414819D02*
X116142857Y-99462438D01*
X116142857Y-99462438D02*
X116238095Y-99557676D01*
X116238095Y-99557676D02*
X116285714Y-99652914D01*
X116285714Y-99652914D02*
X116333333Y-99843390D01*
X116333333Y-99843390D02*
X116333333Y-99986247D01*
X116333333Y-99986247D02*
X116285714Y-100176723D01*
X116285714Y-100176723D02*
X116238095Y-100271961D01*
X116238095Y-100271961D02*
X116142857Y-100367200D01*
X116142857Y-100367200D02*
X116000000Y-100414819D01*
X116000000Y-100414819D02*
X115761905Y-100414819D01*
X116666667Y-99414819D02*
X117285714Y-99414819D01*
X117285714Y-99414819D02*
X116952381Y-99795771D01*
X116952381Y-99795771D02*
X117095238Y-99795771D01*
X117095238Y-99795771D02*
X117190476Y-99843390D01*
X117190476Y-99843390D02*
X117238095Y-99891009D01*
X117238095Y-99891009D02*
X117285714Y-99986247D01*
X117285714Y-99986247D02*
X117285714Y-100224342D01*
X117285714Y-100224342D02*
X117238095Y-100319580D01*
X117238095Y-100319580D02*
X117190476Y-100367200D01*
X117190476Y-100367200D02*
X117095238Y-100414819D01*
X117095238Y-100414819D02*
X116809524Y-100414819D01*
X116809524Y-100414819D02*
X116714286Y-100367200D01*
X116714286Y-100367200D02*
X116666667Y-100319580D01*
X119796666Y-149802319D02*
X119796666Y-150516604D01*
X119796666Y-150516604D02*
X119749047Y-150659461D01*
X119749047Y-150659461D02*
X119653809Y-150754700D01*
X119653809Y-150754700D02*
X119510952Y-150802319D01*
X119510952Y-150802319D02*
X119415714Y-150802319D01*
X120796666Y-150802319D02*
X120225238Y-150802319D01*
X120510952Y-150802319D02*
X120510952Y-149802319D01*
X120510952Y-149802319D02*
X120415714Y-149945176D01*
X120415714Y-149945176D02*
X120320476Y-150040414D01*
X120320476Y-150040414D02*
X120225238Y-150088033D01*
D11*
G04 #@! TO.C,D12*
X110480000Y-46670000D02*
X110324000Y-46670000D01*
X112796000Y-46670000D02*
X112640000Y-46670000D01*
X110480000Y-49270961D02*
G75*
G02*
X110480000Y-47189039I1080000J1040961D01*
G01*
X110480000Y-49901437D02*
G75*
G02*
X110324484Y-46670000I1080000J1671437D01*
G01*
X112640000Y-47189039D02*
G75*
G02*
X112640000Y-49270961I-1080000J-1040961D01*
G01*
X112795516Y-46670000D02*
G75*
G02*
X112640000Y-49901437I-1235516J-1560000D01*
G01*
G04 #@! TO.C,R8*
X111500000Y-53130000D02*
X111500000Y-54080000D01*
X111500000Y-58870000D02*
X111500000Y-57920000D01*
X112420000Y-54080000D02*
X110580000Y-54080000D01*
X110580000Y-57920000D01*
X112420000Y-57920000D01*
X112420000Y-54080000D01*
G04 #@! TO.C,R9*
X104420000Y-54080000D02*
X102580000Y-54080000D01*
X102580000Y-57920000D01*
X104420000Y-57920000D01*
X104420000Y-54080000D01*
X103500000Y-58870000D02*
X103500000Y-57920000D01*
X103500000Y-53130000D02*
X103500000Y-54080000D01*
G04 #@! TO.C,D11*
X104765516Y-46670000D02*
G75*
G02*
X104610000Y-49901437I-1235516J-1560000D01*
G01*
X104610000Y-47189039D02*
G75*
G02*
X104610000Y-49270961I-1080000J-1040961D01*
G01*
X102450000Y-49901437D02*
G75*
G02*
X102294484Y-46670000I1080000J1671437D01*
G01*
X102450000Y-49270961D02*
G75*
G02*
X102450000Y-47189039I1080000J1040961D01*
G01*
X104766000Y-46670000D02*
X104610000Y-46670000D01*
X102450000Y-46670000D02*
X102294000Y-46670000D01*
G04 #@! TO.C,D10*
X93890000Y-46670000D02*
X93734000Y-46670000D01*
X96206000Y-46670000D02*
X96050000Y-46670000D01*
X93890000Y-49270961D02*
G75*
G02*
X93890000Y-47189039I1080000J1040961D01*
G01*
X93890000Y-49901437D02*
G75*
G02*
X93734484Y-46670000I1080000J1671437D01*
G01*
X96050000Y-47189039D02*
G75*
G02*
X96050000Y-49270961I-1080000J-1040961D01*
G01*
X96205516Y-46670000D02*
G75*
G02*
X96050000Y-49901437I-1235516J-1560000D01*
G01*
G04 #@! TO.C,D2*
X120440000Y-103264000D02*
X120440000Y-103420000D01*
X120440000Y-105580000D02*
X120440000Y-105736000D01*
X120440000Y-103264484D02*
G75*
G02*
X123671437Y-103420000I1560000J-1235516D01*
G01*
X120959039Y-103420000D02*
G75*
G02*
X123040961Y-103420000I1040961J-1080000D01*
G01*
X123040961Y-105580000D02*
G75*
G02*
X120959039Y-105580000I-1040961J1080000D01*
G01*
X123671437Y-105580000D02*
G75*
G02*
X120440000Y-105735516I-1671437J1080000D01*
G01*
G04 #@! TO.C,D9*
X109130000Y-139730000D02*
X109130000Y-140380000D01*
X109130000Y-145270000D02*
X109130000Y-144620000D01*
X110250000Y-140980000D02*
X108010000Y-140980000D01*
X110250000Y-141100000D02*
X108010000Y-141100000D01*
X110250000Y-141220000D02*
X108010000Y-141220000D01*
X110250000Y-140380000D02*
X108010000Y-140380000D01*
X108010000Y-144620000D01*
X110250000Y-144620000D01*
X110250000Y-140380000D01*
G04 #@! TO.C,R2*
X127000000Y-97630000D02*
X127000000Y-98580000D01*
X127000000Y-103370000D02*
X127000000Y-102420000D01*
X126080000Y-102420000D02*
X127920000Y-102420000D01*
X127920000Y-98580000D01*
X126080000Y-98580000D01*
X126080000Y-102420000D01*
G04 #@! TO.C,U3*
X126905000Y-110355000D02*
X126905000Y-115655000D01*
X126905000Y-115655000D02*
X132105000Y-115655000D01*
X132105000Y-110355000D02*
X126905000Y-110355000D01*
X132105000Y-112005000D02*
X132105000Y-110355000D01*
X132105000Y-115655000D02*
X132105000Y-114005000D01*
X132105000Y-114005000D02*
G75*
G02*
X132105000Y-112005000I0J1000000D01*
G01*
G04 #@! TO.C,R3*
X107500000Y-98130000D02*
X107500000Y-99080000D01*
X107500000Y-103870000D02*
X107500000Y-102920000D01*
X108420000Y-99080000D02*
X106580000Y-99080000D01*
X106580000Y-102920000D01*
X108420000Y-102920000D01*
X108420000Y-99080000D01*
G04 #@! TO.C,R1*
X134000000Y-97630000D02*
X134000000Y-98580000D01*
X134000000Y-103370000D02*
X134000000Y-102420000D01*
X133080000Y-102420000D02*
X134920000Y-102420000D01*
X134920000Y-98580000D01*
X133080000Y-98580000D01*
X133080000Y-102420000D01*
G04 #@! TO.C,R4*
X112000000Y-98130000D02*
X112000000Y-99080000D01*
X112000000Y-103870000D02*
X112000000Y-102920000D01*
X112920000Y-99080000D02*
X111080000Y-99080000D01*
X111080000Y-102920000D01*
X112920000Y-102920000D01*
X112920000Y-99080000D01*
G04 #@! TO.C,D6*
X93660000Y-126200000D02*
X96600000Y-126200000D01*
X93660000Y-126320000D02*
X96600000Y-126320000D01*
X93660000Y-126440000D02*
X96600000Y-126440000D01*
X95130000Y-120760000D02*
X95130000Y-121780000D01*
X95130000Y-128240000D02*
X95130000Y-127220000D01*
X93660000Y-127220000D02*
X96600000Y-127220000D01*
X96600000Y-121780000D01*
X93660000Y-121780000D01*
X93660000Y-127220000D01*
G04 #@! TO.C,U2*
X106895000Y-109845000D02*
X106895000Y-111495000D01*
X106895000Y-113495000D02*
X106895000Y-115145000D01*
X106895000Y-115145000D02*
X112095000Y-115145000D01*
X112095000Y-109845000D02*
X106895000Y-109845000D01*
X112095000Y-115145000D02*
X112095000Y-109845000D01*
X106895000Y-111495000D02*
G75*
G02*
X106895000Y-113495000I0J-1000000D01*
G01*
G04 #@! TO.C,R10*
X94970000Y-53130000D02*
X94970000Y-54080000D01*
X94970000Y-58870000D02*
X94970000Y-57920000D01*
X95890000Y-54080000D02*
X94050000Y-54080000D01*
X94050000Y-57920000D01*
X95890000Y-57920000D01*
X95890000Y-54080000D01*
G04 #@! TO.C,R7*
X138630000Y-121130000D02*
X138630000Y-122080000D01*
X138630000Y-126870000D02*
X138630000Y-125920000D01*
X139550000Y-122080000D02*
X137710000Y-122080000D01*
X137710000Y-125920000D01*
X139550000Y-125920000D01*
X139550000Y-122080000D01*
G04 #@! TO.C,D1*
X122000000Y-120760000D02*
X122000000Y-121780000D01*
X122000000Y-128240000D02*
X122000000Y-127220000D01*
X123470000Y-122560000D02*
X120530000Y-122560000D01*
X123470000Y-122680000D02*
X120530000Y-122680000D01*
X123470000Y-122800000D02*
X120530000Y-122800000D01*
X123470000Y-121780000D02*
X120530000Y-121780000D01*
X120530000Y-127220000D01*
X123470000Y-127220000D01*
X123470000Y-121780000D01*
G04 #@! TO.C,Q1*
X129330000Y-126210000D02*
X132930000Y-126210000D01*
X129291522Y-126198478D02*
G75*
G02*
X131130000Y-121759999I1838478J1838478D01*
G01*
X131130000Y-121760000D02*
G75*
G02*
X132968478Y-126198478I0J-2600000D01*
G01*
G04 #@! TO.C,D4*
X123010000Y-143780000D02*
X125250000Y-143780000D01*
X123010000Y-143900000D02*
X125250000Y-143900000D01*
X123010000Y-144020000D02*
X125250000Y-144020000D01*
X124130000Y-139730000D02*
X124130000Y-140380000D01*
X124130000Y-145270000D02*
X124130000Y-144620000D01*
X123010000Y-144620000D02*
X125250000Y-144620000D01*
X125250000Y-140380000D01*
X123010000Y-140380000D01*
X123010000Y-144620000D01*
G04 #@! TO.C,R6*
X110130000Y-122130000D02*
X110130000Y-123080000D01*
X110130000Y-127870000D02*
X110130000Y-126920000D01*
X111050000Y-123080000D02*
X109210000Y-123080000D01*
X109210000Y-126920000D01*
X111050000Y-126920000D01*
X111050000Y-123080000D01*
G04 #@! TO.C,R5*
X116630000Y-122130000D02*
X116630000Y-123080000D01*
X116630000Y-127870000D02*
X116630000Y-126920000D01*
X115710000Y-126920000D02*
X117550000Y-126920000D01*
X117550000Y-123080000D01*
X115710000Y-123080000D01*
X115710000Y-126920000D01*
G04 #@! TO.C,D8*
X130130000Y-139730000D02*
X130130000Y-140380000D01*
X130130000Y-145270000D02*
X130130000Y-144620000D01*
X131250000Y-140980000D02*
X129010000Y-140980000D01*
X131250000Y-141100000D02*
X129010000Y-141100000D01*
X131250000Y-141220000D02*
X129010000Y-141220000D01*
X131250000Y-140380000D02*
X129010000Y-140380000D01*
X129010000Y-144620000D01*
X131250000Y-144620000D01*
X131250000Y-140380000D01*
G04 #@! TO.C,D7*
X114510000Y-143780000D02*
X116750000Y-143780000D01*
X114510000Y-143900000D02*
X116750000Y-143900000D01*
X114510000Y-144020000D02*
X116750000Y-144020000D01*
X115630000Y-139730000D02*
X115630000Y-140380000D01*
X115630000Y-145270000D02*
X115630000Y-144620000D01*
X114510000Y-144620000D02*
X116750000Y-144620000D01*
X116750000Y-140380000D01*
X114510000Y-140380000D01*
X114510000Y-144620000D01*
G04 #@! TO.C,D5*
X101160000Y-126200000D02*
X104100000Y-126200000D01*
X101160000Y-126320000D02*
X104100000Y-126320000D01*
X101160000Y-126440000D02*
X104100000Y-126440000D01*
X102630000Y-120760000D02*
X102630000Y-121780000D01*
X102630000Y-128240000D02*
X102630000Y-127220000D01*
X101160000Y-127220000D02*
X104100000Y-127220000D01*
X104100000Y-121780000D01*
X101160000Y-121780000D01*
X101160000Y-127220000D01*
G04 #@! TO.C,D3*
X118060000Y-95920000D02*
X118060000Y-95764000D01*
X118060000Y-98236000D02*
X118060000Y-98080000D01*
X114828563Y-95920000D02*
G75*
G02*
X118060000Y-95764484I1671437J-1080000D01*
G01*
X115459039Y-95920000D02*
G75*
G02*
X117540961Y-95920000I1040961J-1080000D01*
G01*
X117540961Y-98080000D02*
G75*
G02*
X115459039Y-98080000I-1040961J1080000D01*
G01*
X118060000Y-98235516D02*
G75*
G02*
X114828563Y-98080000I-1560000J1235516D01*
G01*
G04 #@! TO.C,J1*
X114760000Y-151347500D02*
X125500000Y-151347500D01*
X114760000Y-154967500D02*
X116000000Y-154967500D01*
X114760000Y-155967500D02*
X116000000Y-155967500D01*
X114760000Y-157267500D02*
X116000000Y-157267500D01*
X114760000Y-159387500D02*
X114760000Y-151347500D01*
X117580000Y-159387500D02*
X114760000Y-159387500D01*
X119760000Y-154967500D02*
X121068000Y-154967500D01*
X119760000Y-155967500D02*
X121068000Y-155967500D01*
X119760000Y-157267500D02*
X122337000Y-157267500D01*
X123423000Y-157267500D02*
X125500000Y-157267500D01*
X124692000Y-154967500D02*
X125500000Y-154967500D01*
X124692000Y-155967500D02*
X125500000Y-155967500D01*
X125500000Y-151347500D02*
X125500000Y-159387500D01*
X125500000Y-159387500D02*
X118180000Y-159387500D01*
X118320000Y-159997500D02*
X117440000Y-159997500D01*
X117880000Y-159387500D01*
X118320000Y-159997500D01*
G36*
X118320000Y-159997500D02*
G01*
X117440000Y-159997500D01*
X117880000Y-159387500D01*
X118320000Y-159997500D01*
G37*
G04 #@! TD*
%LPC*%
D12*
G04 #@! TO.C,D12*
X111560000Y-46960000D03*
D13*
X111560000Y-49500000D03*
G04 #@! TD*
D14*
G04 #@! TO.C,R8*
X111500000Y-52190000D03*
X111500000Y-59810000D03*
G04 #@! TD*
G04 #@! TO.C,R9*
X103500000Y-59810000D03*
X103500000Y-52190000D03*
G04 #@! TD*
D13*
G04 #@! TO.C,D11*
X103530000Y-49500000D03*
D12*
X103530000Y-46960000D03*
G04 #@! TD*
G04 #@! TO.C,D10*
X94970000Y-46960000D03*
D13*
X94970000Y-49500000D03*
G04 #@! TD*
D12*
G04 #@! TO.C,D2*
X120730000Y-104500000D03*
D13*
X123270000Y-104500000D03*
G04 #@! TD*
D15*
G04 #@! TO.C,D9*
X109130000Y-138690000D03*
D16*
X109130000Y-146310000D03*
G04 #@! TD*
D14*
G04 #@! TO.C,R2*
X127000000Y-104310000D03*
X127000000Y-96690000D03*
G04 #@! TD*
D15*
G04 #@! TO.C,U3*
X130775000Y-109195000D03*
D16*
X128235000Y-109195000D03*
X128235000Y-116815000D03*
X130775000Y-116815000D03*
G04 #@! TD*
D14*
G04 #@! TO.C,R3*
X107500000Y-97190000D03*
X107500000Y-104810000D03*
G04 #@! TD*
G04 #@! TO.C,R1*
X134000000Y-104310000D03*
X134000000Y-96690000D03*
G04 #@! TD*
G04 #@! TO.C,R4*
X112000000Y-97190000D03*
X112000000Y-104810000D03*
G04 #@! TD*
D17*
G04 #@! TO.C,D6*
X95130000Y-129580000D03*
D18*
X95130000Y-119420000D03*
G04 #@! TD*
D19*
G04 #@! TO.C,U2*
X108225000Y-116305000D03*
D16*
X110765000Y-116305000D03*
X110765000Y-108685000D03*
X108225000Y-108685000D03*
G04 #@! TD*
D14*
G04 #@! TO.C,R10*
X94970000Y-52190000D03*
X94970000Y-59810000D03*
G04 #@! TD*
G04 #@! TO.C,R7*
X138630000Y-120190000D03*
X138630000Y-127810000D03*
G04 #@! TD*
D20*
G04 #@! TO.C,D1*
X122000000Y-119420000D03*
D18*
X122000000Y-129580000D03*
G04 #@! TD*
D21*
G04 #@! TO.C,Q1*
X129860000Y-124360000D03*
D22*
X131130000Y-124360000D03*
X132400000Y-124360000D03*
G04 #@! TD*
D19*
G04 #@! TO.C,D4*
X124130000Y-146310000D03*
D16*
X124130000Y-138690000D03*
G04 #@! TD*
D14*
G04 #@! TO.C,R6*
X110130000Y-121190000D03*
X110130000Y-128810000D03*
G04 #@! TD*
G04 #@! TO.C,R5*
X116630000Y-128810000D03*
X116630000Y-121190000D03*
G04 #@! TD*
D15*
G04 #@! TO.C,D8*
X130130000Y-138690000D03*
D16*
X130130000Y-146310000D03*
G04 #@! TD*
D19*
G04 #@! TO.C,D7*
X115630000Y-146310000D03*
D16*
X115630000Y-138690000D03*
G04 #@! TD*
D17*
G04 #@! TO.C,D5*
X102630000Y-129580000D03*
D18*
X102630000Y-119420000D03*
G04 #@! TD*
D12*
G04 #@! TO.C,D3*
X117770000Y-97000000D03*
D13*
X115230000Y-97000000D03*
G04 #@! TD*
D23*
G04 #@! TO.C,J1*
X117880000Y-155467500D03*
D24*
X122880000Y-155467500D03*
G04 #@! TD*
D25*
G04 #@! TO.C,U1*
X88110000Y-68055000D03*
D26*
X90650000Y-68055000D03*
X93190000Y-68055000D03*
X95730000Y-68055000D03*
X98270000Y-68055000D03*
X100810000Y-68055000D03*
X103350000Y-68055000D03*
X105890000Y-68055000D03*
X105890000Y-90915000D03*
X103350000Y-90915000D03*
X100810000Y-90915000D03*
X98270000Y-90915000D03*
X95730000Y-90915000D03*
X93190000Y-90915000D03*
X90650000Y-90915000D03*
X88110000Y-90915000D03*
G04 #@! TD*
%LPD*%
M02*
